<svg width="50" height="50" viewBox="0 0 50 50" fill="none" xmlns="http://www.w3.org/2000/svg">
    <path d="M15.8108 18C15.3632 18 15 18.4479 15 19C15 19.5521 15.3632 20 15.8108 20H34.1892C34.6368 20 35 19.5521 35 19C35 18.4479 34.6368 18 34.1892 18H15.8108Z" fill="#595959"/>
    <path d="M15.8108 24C15.3632 24 15 24.4479 15 25C15 25.5521 15.3632 26 15.8108 26H34.1892C34.6368 26 35 25.5521 35 25C35 24.4479 34.6368 24 34.1892 24H15.8108Z" fill="#595959"/>
    <path d="M15.8108 30C15.3632 30 15 30.4479 15 31C15 31.5521 15.3632 32 15.8108 32H34.1892C34.6368 32 35 31.5521 35 31C35 30.4479 34.6368 30 34.1892 30H15.8108Z" fill="#595959"/>
</svg>
