<svg width="50" height="50" viewBox="0 0 50 50" fill="none" xmlns="http://www.w3.org/2000/svg">
<path d="M32.704 31.3246L27.5801 26.1998C28.3682 25.165 28.8116 23.8346 28.8116 22.4053C28.8116 18.8576 25.954 16 22.4063 16C18.8585 16 16 18.8585 16 22.4063C16 25.954 18.8576 28.8116 22.4053 28.8116C23.8346 28.8116 25.1151 28.3682 26.1998 27.5801L31.3246 32.7049C31.5214 32.9017 31.7681 33.0006 32.0148 33.0006C32.2615 33.0006 32.5072 32.9017 32.7049 32.7049C33.0985 32.3104 33.0985 31.7191 32.704 31.3246L32.704 31.3246ZM22.4063 26.841C19.9423 26.841 17.9716 24.8703 17.9716 22.4063C17.9716 19.9423 19.9423 17.9716 22.4063 17.9716C24.8703 17.9716 26.841 19.9423 26.841 22.4063C26.841 24.8694 24.8694 26.841 22.4063 26.841Z" fill="#595959"/>
</svg>
