<svg width="50" height="50" viewBox="0 0 50 50" fill="none" xmlns="http://www.w3.org/2000/svg">
<path d="M17.7951 30.7906C17.4786 31.1072 17.5385 31.6807 17.9289 32.0711C18.3193 32.4614 18.8928 32.5214 19.2093 32.2049L32.2048 19.2094C32.5213 18.8929 32.4614 18.3193 32.071 17.9289C31.6807 17.5386 31.1071 17.4786 30.7906 17.7952L17.7951 30.7906Z" fill="#595959"/>
<path d="M32.2048 30.7906C32.5213 31.1072 32.4614 31.6807 32.071 32.0711C31.6807 32.4614 31.1071 32.5214 30.7906 32.2049L17.7951 19.2094C17.4786 18.8929 17.5385 18.3193 17.9289 17.9289C18.3193 17.5386 18.8928 17.4786 19.2093 17.7952L32.2048 30.7906Z" fill="#595959"/>
</svg>
